<mxfile host="65bd71144e">
    <diagram id="i_Y-9i5CSLPeSbqCT8az" name="Page-1">
        <mxGraphModel dx="676" dy="775" grid="1" gridSize="10" guides="1" tooltips="1" connect="1" arrows="1" fold="1" page="1" pageScale="1" pageWidth="850" pageHeight="1100" math="0" shadow="0">
            <root>
                <mxCell id="0"/>
                <mxCell id="1" parent="0"/>
                <mxCell id="2" value="Abfahrtszeit&lt;br&gt;Ankunftszeit&lt;br&gt;Distance&lt;br&gt;RÃ¼ckfahrt&lt;br&gt;Anzahlfahrten" style="shape=parallelogram;perimeter=parallelogramPerimeter;whiteSpace=wrap;html=1;fixedSize=1;" vertex="1" parent="1">
                    <mxGeometry x="50" y="150" width="120" height="90" as="geometry"/>
                </mxCell>
                <mxCell id="3" value="Technische Daten Auto" style="shape=parallelogram;perimeter=parallelogramPerimeter;whiteSpace=wrap;html=1;fixedSize=1;" vertex="1" parent="1">
                    <mxGeometry x="170" y="150" width="120" height="90" as="geometry"/>
                </mxCell>
                <mxCell id="4" value="Ladestationen Technische Daten" style="shape=parallelogram;perimeter=parallelogramPerimeter;whiteSpace=wrap;html=1;fixedSize=1;" vertex="1" parent="1">
                    <mxGeometry x="290" y="150" width="120" height="90" as="geometry"/>
                </mxCell>
                <mxCell id="5" value="Erzeugungsprognose" style="shape=parallelogram;perimeter=parallelogramPerimeter;whiteSpace=wrap;html=1;fixedSize=1;" vertex="1" parent="1">
                    <mxGeometry x="410" y="150" width="120" height="90" as="geometry"/>
                </mxCell>
                <mxCell id="6" value="Strompreis" style="shape=parallelogram;perimeter=parallelogramPerimeter;whiteSpace=wrap;html=1;fixedSize=1;" vertex="1" parent="1">
                    <mxGeometry x="530" y="150" width="120" height="90" as="geometry"/>
                </mxCell>
                <mxCell id="7" value="&lt;font style=&quot;font-size: 24px;&quot;&gt;Inputs&lt;/font&gt;" style="text;html=1;align=center;verticalAlign=middle;resizable=0;points=[];autosize=1;strokeColor=none;fillColor=none;" vertex="1" parent="1">
                    <mxGeometry x="275" y="90" width="90" height="40" as="geometry"/>
                </mxCell>
            </root>
        </mxGraphModel>
    </diagram>
</mxfile>